<svg xmlns="http://www.w3.org/2000/svg" xmlns:xlink="http://www.w3.org/1999/xlink" width="1080" zoomAndPan="magnify" viewBox="0 0 810 809.999993" height="1080" preserveAspectRatio="xMidYMid meet" version="1.0"><defs><clipPath id="991467daf6"><path d="M 17 184 L 426 184 L 426 515 L 17 515 Z M 17 184 " clip-rule="nonzero"/></clipPath><clipPath id="6ba87cc302"><path d="M 17.320312 255.523438 L 69.089844 184.386719 L 425.21875 443.570312 L 373.449219 514.703125 Z M 17.320312 255.523438 " clip-rule="nonzero"/></clipPath><clipPath id="df51c83fa0"><path d="M 0.28125 0.320312 L 408.28125 0.320312 L 408.28125 330.800781 L 0.28125 330.800781 Z M 0.28125 0.320312 " clip-rule="nonzero"/></clipPath><clipPath id="ccbd1d3b8f"><path d="M 0.320312 71.523438 L 52.089844 0.386719 L 408.21875 259.570312 L 356.449219 330.703125 Z M 0.320312 71.523438 " clip-rule="nonzero"/></clipPath><clipPath id="723910a83b"><rect x="0" width="409" y="0" height="331"/></clipPath><clipPath id="e3cfa4109e"><path d="M 385 182 L 793 182 L 793 515 L 385 515 Z M 385 182 " clip-rule="nonzero"/></clipPath><clipPath id="dbe616f980"><path d="M 739.933594 182.542969 L 792.210938 253.492188 L 437.691406 514.707031 L 385.414062 443.757812 Z M 739.933594 182.542969 " clip-rule="nonzero"/></clipPath><clipPath id="04cfee5355"><path d="M 0.199219 0.398438 L 407.238281 0.398438 L 407.238281 332.800781 L 0.199219 332.800781 Z M 0.199219 0.398438 " clip-rule="nonzero"/></clipPath><clipPath id="eead6ad754"><path d="M 354.933594 0.542969 L 407.210938 71.492188 L 52.691406 332.707031 L 0.414062 261.757812 Z M 354.933594 0.542969 " clip-rule="nonzero"/></clipPath><clipPath id="037ae45642"><rect x="0" width="408" y="0" height="333"/></clipPath><clipPath id="c525a8d3e8"><path d="M 162 142 L 430 142 L 430 372 L 162 372 Z M 162 142 " clip-rule="nonzero"/></clipPath><clipPath id="56310af786"><path d="M 378.03125 142.679688 L 429.957031 213.453125 L 214.027344 371.894531 L 162.097656 301.121094 Z M 378.03125 142.679688 " clip-rule="nonzero"/></clipPath><clipPath id="fd20f897d2"><path d="M 0 0.558594 L 268 0.558594 L 268 230 L 0 230 Z M 0 0.558594 " clip-rule="nonzero"/></clipPath><clipPath id="c731565942"><path d="M 216.03125 0.679688 L 267.957031 71.453125 L 52.027344 229.894531 L 0.0976562 159.121094 Z M 216.03125 0.679688 " clip-rule="nonzero"/></clipPath><clipPath id="fabb583901"><rect x="0" width="268" y="0" height="230"/></clipPath><clipPath id="66fa1eaa9b"><path d="M 145.828125 337.324219 L 233.09375 337.324219 L 233.09375 632.851562 L 145.828125 632.851562 Z M 145.828125 337.324219 " clip-rule="nonzero"/></clipPath><clipPath id="a17056cd9e"><path d="M 0.828125 0.324219 L 88.09375 0.324219 L 88.09375 295.851562 L 0.828125 295.851562 Z M 0.828125 0.324219 " clip-rule="nonzero"/></clipPath><clipPath id="970ea31ebc"><rect x="0" width="89" y="0" height="296"/></clipPath><clipPath id="3e6d8c5168"><path d="M 359.5 469.707031 L 451.917969 469.707031 L 451.917969 521.703125 L 359.5 521.703125 Z M 359.5 469.707031 " clip-rule="nonzero"/></clipPath><clipPath id="08b0fd9e3f"><path d="M 405.65625 469.707031 C 380.164062 469.707031 359.5 481.34375 359.5 495.703125 C 359.5 510.0625 380.164062 521.703125 405.65625 521.703125 C 431.144531 521.703125 451.808594 510.0625 451.808594 495.703125 C 451.808594 481.34375 431.144531 469.707031 405.65625 469.707031 Z M 405.65625 469.707031 " clip-rule="nonzero"/></clipPath><clipPath id="7d310a6d7d"><path d="M 0.5 0.707031 L 92.917969 0.707031 L 92.917969 52.703125 L 0.5 52.703125 Z M 0.5 0.707031 " clip-rule="nonzero"/></clipPath><clipPath id="78f8864771"><path d="M 46.65625 0.707031 C 21.164062 0.707031 0.5 12.34375 0.5 26.703125 C 0.5 41.0625 21.164062 52.703125 46.65625 52.703125 C 72.144531 52.703125 92.808594 41.0625 92.808594 26.703125 C 92.808594 12.34375 72.144531 0.707031 46.65625 0.707031 Z M 46.65625 0.707031 " clip-rule="nonzero"/></clipPath><clipPath id="04dd064734"><rect x="0" width="93" y="0" height="53"/></clipPath><clipPath id="6e8a257b2d"><path d="M 0.222656 176.554688 L 88.566406 176.554688 L 88.566406 264.898438 L 0.222656 264.898438 Z M 0.222656 176.554688 " clip-rule="nonzero"/></clipPath><clipPath id="97359ba47b"><path d="M 44.394531 176.554688 C 20 176.554688 0.222656 196.332031 0.222656 220.726562 C 0.222656 245.121094 20 264.898438 44.394531 264.898438 C 68.792969 264.898438 88.566406 245.121094 88.566406 220.726562 C 88.566406 196.332031 68.792969 176.554688 44.394531 176.554688 Z M 44.394531 176.554688 " clip-rule="nonzero"/></clipPath><clipPath id="cee3c482f5"><path d="M 0.222656 0.554688 L 88.566406 0.554688 L 88.566406 88.898438 L 0.222656 88.898438 Z M 0.222656 0.554688 " clip-rule="nonzero"/></clipPath><clipPath id="e708fbf7b6"><path d="M 44.394531 0.554688 C 20 0.554688 0.222656 20.332031 0.222656 44.726562 C 0.222656 69.121094 20 88.898438 44.394531 88.898438 C 68.792969 88.898438 88.566406 69.121094 88.566406 44.726562 C 88.566406 20.332031 68.792969 0.554688 44.394531 0.554688 Z M 44.394531 0.554688 " clip-rule="nonzero"/></clipPath><clipPath id="27f6118004"><rect x="0" width="89" y="0" height="89"/></clipPath><clipPath id="d137b5f174"><path d="M 377.488281 456.222656 L 433.886719 456.222656 L 433.886719 487.953125 L 377.488281 487.953125 Z M 377.488281 456.222656 " clip-rule="nonzero"/></clipPath><clipPath id="db0c647a29"><path d="M 405.65625 456.222656 C 390.097656 456.222656 377.488281 463.324219 377.488281 472.089844 C 377.488281 480.851562 390.097656 487.953125 405.65625 487.953125 C 421.210938 487.953125 433.820312 480.851562 433.820312 472.089844 C 433.820312 463.324219 421.210938 456.222656 405.65625 456.222656 Z M 405.65625 456.222656 " clip-rule="nonzero"/></clipPath><clipPath id="78280beac9"><path d="M 0.488281 0.222656 L 56.886719 0.222656 L 56.886719 31.953125 L 0.488281 31.953125 Z M 0.488281 0.222656 " clip-rule="nonzero"/></clipPath><clipPath id="995894d613"><path d="M 28.65625 0.222656 C 13.097656 0.222656 0.488281 7.324219 0.488281 16.089844 C 0.488281 24.851562 13.097656 31.953125 28.65625 31.953125 C 44.210938 31.953125 56.820312 24.851562 56.820312 16.089844 C 56.820312 7.324219 44.210938 0.222656 28.65625 0.222656 Z M 28.65625 0.222656 " clip-rule="nonzero"/></clipPath><clipPath id="230b3bac79"><rect x="0" width="57" y="0" height="32"/></clipPath><clipPath id="743af0bead"><path d="M 721.21875 173.65625 L 809.992188 173.65625 L 809.992188 262.429688 L 721.21875 262.429688 Z M 721.21875 173.65625 " clip-rule="nonzero"/></clipPath><clipPath id="ca8782ae16"><path d="M 809.992188 218.042969 C 809.992188 193.527344 790.121094 173.65625 765.605469 173.65625 C 741.089844 173.65625 721.21875 193.527344 721.21875 218.042969 C 721.21875 242.558594 741.089844 262.429688 765.605469 262.429688 C 790.121094 262.429688 809.992188 242.558594 809.992188 218.042969 Z M 809.992188 218.042969 " clip-rule="nonzero"/></clipPath><clipPath id="dc32e51c79"><path d="M 0.21875 0.65625 L 88.992188 0.65625 L 88.992188 89.429688 L 0.21875 89.429688 Z M 0.21875 0.65625 " clip-rule="nonzero"/></clipPath><clipPath id="e9a5d85ebd"><path d="M 88.992188 45.042969 C 88.992188 20.527344 69.121094 0.65625 44.605469 0.65625 C 20.089844 0.65625 0.21875 20.527344 0.21875 45.042969 C 0.21875 69.558594 20.089844 89.429688 44.605469 89.429688 C 69.121094 89.429688 88.992188 69.558594 88.992188 45.042969 Z M 88.992188 45.042969 " clip-rule="nonzero"/></clipPath><clipPath id="829426b15a"><rect x="0" width="89" y="0" height="90"/></clipPath><clipPath id="0b454fda62"><path d="M 361.332031 134 L 448.058594 134 L 448.058594 220.726562 L 361.332031 220.726562 Z M 361.332031 134 " clip-rule="nonzero"/></clipPath><clipPath id="3b26420bf8"><path d="M 448.058594 177.363281 C 448.058594 153.414062 428.644531 134 404.695312 134 C 380.746094 134 361.332031 153.414062 361.332031 177.363281 C 361.332031 201.3125 380.746094 220.726562 404.695312 220.726562 C 428.644531 220.726562 448.058594 201.3125 448.058594 177.363281 Z M 448.058594 177.363281 " clip-rule="nonzero"/></clipPath><clipPath id="29543f64bc"><path d="M 0.332031 0 L 87.058594 0 L 87.058594 86.726562 L 0.332031 86.726562 Z M 0.332031 0 " clip-rule="nonzero"/></clipPath><clipPath id="a4697de3b1"><path d="M 87.058594 43.363281 C 87.058594 19.414062 67.644531 0 43.695312 0 C 19.746094 0 0.332031 19.414062 0.332031 43.363281 C 0.332031 67.3125 19.746094 86.726562 43.695312 86.726562 C 67.644531 86.726562 87.058594 67.3125 87.058594 43.363281 Z M 87.058594 43.363281 " clip-rule="nonzero"/></clipPath><clipPath id="29d964d0f1"><rect x="0" width="88" y="0" height="87"/></clipPath><clipPath id="6cdaad6f4a"><path d="M 145.820312 588.734375 L 233.085938 588.734375 L 233.085938 676 L 145.820312 676 Z M 145.820312 588.734375 " clip-rule="nonzero"/></clipPath><clipPath id="3fa92eee35"><path d="M 233.085938 632.367188 C 233.085938 608.269531 213.550781 588.734375 189.453125 588.734375 C 165.355469 588.734375 145.820312 608.269531 145.820312 632.367188 C 145.820312 656.464844 165.355469 676 189.453125 676 C 213.550781 676 233.085938 656.464844 233.085938 632.367188 Z M 233.085938 632.367188 " clip-rule="nonzero"/></clipPath><clipPath id="7c3e2dde4a"><path d="M 0.820312 0.734375 L 88.085938 0.734375 L 88.085938 88 L 0.820312 88 Z M 0.820312 0.734375 " clip-rule="nonzero"/></clipPath><clipPath id="57bc4ba2e3"><path d="M 88.085938 44.367188 C 88.085938 20.269531 68.550781 0.734375 44.453125 0.734375 C 20.355469 0.734375 0.820312 20.269531 0.820312 44.367188 C 0.820312 68.464844 20.355469 88 44.453125 88 C 68.550781 88 88.085938 68.464844 88.085938 44.367188 Z M 88.085938 44.367188 " clip-rule="nonzero"/></clipPath><clipPath id="6e5701127c"><rect x="0" width="89" y="0" height="88"/></clipPath></defs><g clip-path="url(#991467daf6)"><g clip-path="url(#6ba87cc302)"><g transform="matrix(1, 0, 0, 1, 17, 184)"><g clip-path="url(#723910a83b)"><g clip-path="url(#df51c83fa0)"><g clip-path="url(#ccbd1d3b8f)"><path fill="#000000" d="M 0.320312 71.523438 L 52.089844 0.386719 L 408.316406 259.640625 L 356.546875 330.773438 Z M 0.320312 71.523438 " fill-opacity="1" fill-rule="nonzero"/></g></g></g></g></g></g><g clip-path="url(#e3cfa4109e)"><g clip-path="url(#dbe616f980)"><g transform="matrix(1, 0, 0, 1, 385, 182)"><g clip-path="url(#037ae45642)"><g clip-path="url(#04cfee5355)"><g clip-path="url(#eead6ad754)"><path fill="#000000" d="M 354.933594 0.542969 L 407.210938 71.492188 L 52.75 332.664062 L 0.476562 261.714844 Z M 354.933594 0.542969 " fill-opacity="1" fill-rule="nonzero"/></g></g></g></g></g></g><g clip-path="url(#c525a8d3e8)"><g clip-path="url(#56310af786)"><g transform="matrix(1, 0, 0, 1, 162, 142)"><g clip-path="url(#fabb583901)"><g clip-path="url(#fd20f897d2)"><g clip-path="url(#c731565942)"><path fill="#000000" d="M 216.03125 0.679688 L 267.957031 71.453125 L 52.050781 229.875 L 0.121094 159.105469 Z M 216.03125 0.679688 " fill-opacity="1" fill-rule="nonzero"/></g></g></g></g></g></g><g clip-path="url(#66fa1eaa9b)"><g transform="matrix(1, 0, 0, 1, 145, 337)"><g clip-path="url(#970ea31ebc)"><g clip-path="url(#a17056cd9e)"><path fill="#000000" d="M 0.828125 0.324219 L 88.09375 0.324219 L 88.09375 295.871094 L 0.828125 295.871094 Z M 0.828125 0.324219 " fill-opacity="1" fill-rule="nonzero"/></g></g></g></g><g clip-path="url(#3e6d8c5168)"><g clip-path="url(#08b0fd9e3f)"><g transform="matrix(1, 0, 0, 1, 359, 469)"><g clip-path="url(#04dd064734)"><g clip-path="url(#7d310a6d7d)"><g clip-path="url(#78f8864771)"><path fill="#000000" d="M 0.5 0.707031 L 92.714844 0.707031 L 92.714844 52.703125 L 0.5 52.703125 Z M 0.5 0.707031 " fill-opacity="1" fill-rule="nonzero"/></g></g></g></g></g></g><g clip-path="url(#6e8a257b2d)"><g clip-path="url(#97359ba47b)"><g transform="matrix(1, 0, 0, 1, 0, 176)"><g clip-path="url(#27f6118004)"><g clip-path="url(#cee3c482f5)"><g clip-path="url(#e708fbf7b6)"><path fill="#000000" d="M 0.222656 0.554688 L 88.566406 0.554688 L 88.566406 88.898438 L 0.222656 88.898438 Z M 0.222656 0.554688 " fill-opacity="1" fill-rule="nonzero"/></g></g></g></g></g></g><g clip-path="url(#d137b5f174)"><g clip-path="url(#db0c647a29)"><g transform="matrix(1, 0, 0, 1, 377, 456)"><g clip-path="url(#230b3bac79)"><g clip-path="url(#78280beac9)"><g clip-path="url(#995894d613)"><path fill="#000000" d="M 0.488281 0.222656 L 56.765625 0.222656 L 56.765625 31.953125 L 0.488281 31.953125 Z M 0.488281 0.222656 " fill-opacity="1" fill-rule="nonzero"/></g></g></g></g></g></g><g clip-path="url(#743af0bead)"><g clip-path="url(#ca8782ae16)"><g transform="matrix(1, 0, 0, 1, 721, 173)"><g clip-path="url(#829426b15a)"><g clip-path="url(#dc32e51c79)"><g clip-path="url(#e9a5d85ebd)"><path fill="#000000" d="M 88.992188 0.65625 L 88.992188 89.429688 L 0.21875 89.429688 L 0.21875 0.65625 Z M 88.992188 0.65625 " fill-opacity="1" fill-rule="nonzero"/></g></g></g></g></g></g><g clip-path="url(#0b454fda62)"><g clip-path="url(#3b26420bf8)"><g transform="matrix(1, 0, 0, 1, 361, 134)"><g clip-path="url(#29d964d0f1)"><g clip-path="url(#29543f64bc)"><g clip-path="url(#a4697de3b1)"><path fill="#000000" d="M 87.058594 0 L 87.058594 86.726562 L 0.332031 86.726562 L 0.332031 0 Z M 87.058594 0 " fill-opacity="1" fill-rule="nonzero"/></g></g></g></g></g></g><g clip-path="url(#6cdaad6f4a)"><g clip-path="url(#3fa92eee35)"><g transform="matrix(1, 0, 0, 1, 145, 588)"><g clip-path="url(#6e5701127c)"><g clip-path="url(#7c3e2dde4a)"><g clip-path="url(#57bc4ba2e3)"><path fill="#000000" d="M 88.085938 0.734375 L 88.085938 88 L 0.820312 88 L 0.820312 0.734375 Z M 88.085938 0.734375 " fill-opacity="1" fill-rule="nonzero"/></g></g></g></g></g></g></svg>